{
  "accessors": [
    {
      "bufferView": 2,
      "componentType": 5126,
      "count": 15304,
      "max": [
        88.18215942382813,
        53.26643753051758,
        48.17995834350586
      ],
      "min": [
        -72.23414611816406,
        3.979444980621338,
        -55.299259185791016
      ],
      "type": "VEC3"
    },
    {
      "bufferView": 2,
      "byteOffset": 183648,
      "componentType": 5126,
      "count": 15304,
      "max": [
        0.9997351765632629,
        0.9999760985374451,
        0.9999569058418274
      ],
      "min": [
        -0.9994164109230042,
        -0.9999895691871643,
        -0.9998083114624023
      ],
      "type": "VEC3"
    },
    {
      "bufferView": 3,
      "componentType": 5126,
      "count": 15304,
      "max": [
        0.9999643564224243,
        0.9975273013114929,
        0.9998016357421875,
        1.0
      ],
      "min": [
        -0.9995359182357788,
        -0.9999172687530518,
        -0.9997685551643372,
        -1.0
      ],
      "type": "VEC4"
    },
    {
      "bufferView": 1,
      "componentType": 5126,
      "count": 15304,
      "max": [
        0.9989517331123352,
        0.9989660978317261
      ],
      "min": [
        0.0010482684010639787,
        0.001033887267112732
      ],
      "type": "VEC2"
    },
    {
      "bufferView": 1,
      "byteOffset": 122432,
      "componentType": 5126,
      "count": 15304,
      "max": [
        0.9989517331123352,
        0.9989660978317261
      ],
      "min": [
        0.0010482684010639787,
        0.001033887267112732
      ],
      "type": "VEC2"
    },
    {
      "bufferView": 1,
      "byteOffset": 244864,
      "componentType": 5126,
      "count": 15304,
      "max": [
        0.9989517331123352,
        0.9989660978317261
      ],
      "min": [
        0.0010482684010639787,
        0.001033887267112732
      ],
      "type": "VEC2"
    },
    {
      "bufferView": 0,
      "componentType": 5125,
      "count": 75000,
      "type": "SCALAR"
    }
  ],
  "asset": {
    "extras": {
      "author": "Thomas Flynn (https://sketchfab.com/nebulousflynn)",
      "license": "CC-BY-4.0 (http://creativecommons.org/licenses/by/4.0/)",
      "source": "https://sketchfab.com/3d-models/turtle-by-risd-naturelab-optimised-07f52e154aca40cfa1ce4e9260d2ae73",
      "title": "Turtle By RISD Naturelab - optimised"
    },
    "generator": "Sketchfab-11.6.0",
    "version": "2.0"
  },
  "bufferViews": [
    {
      "buffer": 0,
      "byteLength": 300000,
      "name": "floatBufferViews",
      "target": 34963
    },
    {
      "buffer": 0,
      "byteLength": 367296,
      "byteOffset": 300000,
      "byteStride": 8,
      "name": "floatBufferViews",
      "target": 34962
    },
    {
      "buffer": 0,
      "byteLength": 367296,
      "byteOffset": 667296,
      "byteStride": 12,
      "name": "floatBufferViews",
      "target": 34962
    },
    {
      "buffer": 0,
      "byteLength": 244864,
      "byteOffset": 1034592,
      "byteStride": 16,
      "name": "floatBufferViews",
      "target": 34962
    }
  ],
  "buffers": [
    {
      "byteLength": 1279456,
      "uri": "scene.bin"
    }
  ],
  "images": [
    {
      "uri": "textures/material_0_baseColor.jpeg"
    },
    {
      "uri": "textures/material_0_metallicRoughness.png"
    },
    {
      "uri": "textures/material_0_normal.jpeg"
    }
  ],
  "materials": [
    {
      "doubleSided": true,
      "emissiveFactor": [
        0.5,
        0.5,
        0.5
      ],
      "emissiveTexture": {
        "index": 2
      },
      "name": "material_0",
      "normalTexture": {
        "index": 3
      },
      "occlusionTexture": {
        "index": 1
      },
      "pbrMetallicRoughness": {
        "baseColorTexture": {
          "index": 0
        },
        "metallicFactor": 0.0,
        "metallicRoughnessTexture": {
          "index": 1
        },
        "roughnessFactor": 0.48114857507118697
      }
    }
  ],
  "meshes": [
    {
      "name": "Object_0",
      "primitives": [
        {
          "attributes": {
            "NORMAL": 1,
            "POSITION": 0,
            "TANGENT": 2,
            "TEXCOORD_0": 3,
            "TEXCOORD_1": 4,
            "TEXCOORD_2": 5
          },
          "indices": 6,
          "material": 0,
          "mode": 4
        }
      ]
    }
  ],
  "nodes": [
    {
      "children": [
        1
      ],
      "matrix": [
        0.001818060778842591,
        -2.097916380189768e-05,
        -4.633669179417931e-21,
        0.0,
        3.8895822413938104e-07,
        3.370723963868865e-05,
        -0.0018178692853734468,
        0.0,
        2.0975558736852692e-05,
        0.0018177483421297769,
        3.370948158613795e-05,
        0.0,
        -0.3304416537284851,
        0.032841086387634395,
        -0.5312886238098145,
        1.0
      ],
      "name": "Sketchfab_model"
    },
    {
      "children": [
        2
      ],
      "name": "root"
    },
    {
      "children": [
        3
      ],
      "matrix": [
        1.0,
        0.0,
        0.0,
        0.0,
        0.0,
        2.220446049250313e-16,
        1.0,
        0.0,
        0.0,
        -1.0,
        2.220446049250313e-16,
        0.0,
        0.0,
        0.0,
        0.0,
        1.0
      ],
      "name": "GLTF_SceneRootNode"
    },
    {
      "children": [
        4
      ],
      "name": "_0"
    },
    {
      "mesh": 0,
      "name": "Object_4"
    }
  ],
  "samplers": [
    {
      "magFilter": 9729,
      "minFilter": 9729,
      "wrapS": 33071,
      "wrapT": 33071
    },
    {
      "magFilter": 9729,
      "minFilter": 9987,
      "wrapS": 10497,
      "wrapT": 10497
    }
  ],
  "scene": 0,
  "scenes": [
    {
      "name": "Sketchfab_Scene",
      "nodes": [
        0
      ]
    }
  ],
  "textures": [
    {
      "sampler": 0,
      "source": 0
    },
    {
      "sampler": 0,
      "source": 1
    },
    {
      "sampler": 1,
      "source": 0
    },
    {
      "sampler": 0,
      "source": 2
    }
  ]
}
